<svg width="192" height="38" viewBox="0 0 192 38" fill="none" xmlns="http://www.w3.org/2000/svg">
<path d="M17.5968 0.85849C19.704 0.85849 21.6854 1.17345 23.541 1.80337C25.3966 2.4018 27.0477 3.26794 28.4945 4.4018C29.9412 5.53566 31.1363 6.92148 32.0799 8.55928C33.0549 10.1971 33.6839 12.0396 33.9669 14.0868L28.1171 14.6065C27.6453 11.7719 26.4344 9.61439 24.4845 8.13408C22.566 6.62227 20.2072 5.86636 17.408 5.86636C15.6783 5.86636 14.09 6.16558 12.6432 6.764C11.228 7.36243 10.0014 8.22857 8.96349 9.36243C7.92561 10.4963 7.12362 11.8821 6.5575 13.5199C5.99139 15.1262 5.70833 16.953 5.70833 19.0002C5.70833 21.142 6.00711 23.0317 6.60468 24.6695C7.20225 26.3073 8.03569 27.6774 9.10502 28.7798C10.1744 29.8821 11.4167 30.7168 12.832 31.2837C14.2472 31.8506 15.7883 32.1341 17.4552 32.1341C20.2229 32.1341 22.566 31.4254 24.4845 30.0081C26.403 28.5593 27.6139 26.4648 28.1171 23.7246L34.0141 24.2443C33.6681 26.2601 33.0077 28.0711 32.0327 29.6774C31.0892 31.2522 29.894 32.6065 28.4473 33.7404C27.032 34.8427 25.3966 35.6931 23.541 36.2916C21.7168 36.8585 19.7511 37.142 17.6439 37.142C15.1279 37.142 12.7848 36.7325 10.6147 35.9136C8.47601 35.0947 6.62041 33.9136 5.04786 32.3703C3.47532 30.7955 2.23301 28.89 1.32094 26.6538C0.440312 24.4175 0 21.8664 0 19.0002C0 16.1341 0.440312 13.5829 1.32094 11.3467C2.20156 9.07896 3.42814 7.17345 5.00069 5.63014C6.57323 4.08684 8.42883 2.90573 10.5675 2.08683C12.7061 1.26794 15.0492 0.85849 17.5968 0.85849Z" fill="white"/>
<path d="M65.0281 36.6695L61.7729 28.7798H46.016L42.7137 36.6695H36.5808L51.4885 1.33093H56.2533L71.2082 36.6695H65.0281ZM59.65 23.7719L53.9417 10.0238L48.1861 23.7719H59.65Z" fill="white"/>
<path d="M87.2382 0.85849C89.0309 0.85849 90.682 1.09471 92.1917 1.56715C93.7013 2.0081 95.0065 2.66951 96.1073 3.5514C97.2395 4.43329 98.1201 5.51991 98.7492 6.81125C99.3782 8.07109 99.7241 9.50416 99.787 11.1105L94.0787 11.4412C93.9844 9.64589 93.3239 8.24432 92.0973 7.23644C90.9022 6.22857 89.3139 5.72463 87.3325 5.72463C85.1624 5.72463 83.527 6.22857 82.4262 7.23644C81.3254 8.24432 80.775 9.50416 80.775 11.016C80.775 11.8979 80.9323 12.638 81.2468 13.2364C81.5927 13.8034 82.0959 14.2916 82.7564 14.701C83.4169 15.079 84.2346 15.4097 85.2096 15.6931C86.1846 15.9766 87.3168 16.2601 88.6063 16.5435C90.4619 16.9845 92.1288 17.4727 93.607 18.0081C95.1166 18.5435 96.3904 19.2049 97.4282 19.9924C98.4661 20.7483 99.2681 21.6774 99.8342 22.7798C100.4 23.8506 100.683 25.1577 100.683 26.701C100.683 28.5278 100.337 30.1026 99.6455 31.4254C98.985 32.7168 98.073 33.7876 96.9093 34.638C95.7771 35.4884 94.4247 36.1183 92.8521 36.5278C91.311 36.9372 89.6756 37.142 87.9458 37.142C85.9958 37.142 84.2031 36.9057 82.5677 36.4333C80.9323 35.9609 79.5013 35.2679 78.2747 34.3546C77.0481 33.4412 76.0731 32.3231 75.3497 31.0002C74.6578 29.6774 74.2804 28.1498 74.2175 26.4175L79.9258 26.0868C79.9887 27.0317 80.2246 27.8821 80.6335 28.638C81.0738 29.3939 81.6399 30.0553 82.3318 30.6223C83.0552 31.1577 83.8886 31.5672 84.8322 31.8506C85.8071 32.1341 86.845 32.2758 87.9458 32.2758C88.9522 32.2758 89.88 32.1813 90.7292 31.9923C91.6098 31.8034 92.3646 31.5042 92.9937 31.0947C93.6227 30.6538 94.1102 30.1026 94.4561 29.4412C94.8021 28.7798 94.9751 27.9923 94.9751 27.079C94.9751 26.1971 94.7864 25.4569 94.409 24.8585C94.0315 24.2601 93.4812 23.7561 92.7578 23.3467C92.0344 22.9372 91.1538 22.575 90.1159 22.2601C89.078 21.9451 87.8829 21.6301 86.5305 21.3152C84.958 20.9372 83.4641 20.512 82.0488 20.0396C80.6649 19.5672 79.4541 18.9687 78.4162 18.2443C77.3783 17.4884 76.5449 16.5593 75.9158 15.4569C75.3183 14.3231 75.0195 12.9057 75.0195 11.2049C75.0195 9.81912 75.2711 8.49629 75.7743 7.23644C76.2775 5.9766 77.0323 4.87424 78.0388 3.92936C79.0452 2.98447 80.319 2.24432 81.8601 1.70888C83.4012 1.14195 85.1938 0.85849 87.2382 0.85849Z" fill="white"/>
<path d="M106.872 36.6695V1.33093H112.486V36.6695H106.872Z" fill="white"/>
<path d="M143.393 36.6695L125.985 11.7246V36.6695H120.371V1.33093H125.088L142.543 26.3231V1.33093H148.157V36.6695H143.393Z" fill="white"/>
<path d="M168.416 17.186C168.057 17.186 167.706 17.2924 167.408 17.4918C167.109 17.6911 166.877 17.9745 166.74 18.306C166.602 18.6375 166.566 19.0022 166.636 19.3542C166.706 19.7061 166.879 20.0293 167.133 20.283C167.387 20.5368 167.71 20.7095 168.062 20.7795C168.414 20.8495 168.778 20.8136 169.11 20.6763C169.441 20.539 169.725 20.3065 169.924 20.0081C170.123 19.7098 170.23 19.359 170.23 19.0002C170.23 18.5191 170.039 18.0576 169.699 17.7174C169.358 17.3772 168.897 17.186 168.416 17.186ZM168.416 24.4427C168.057 24.4427 167.706 24.5491 167.408 24.7485C167.109 24.9478 166.877 25.2312 166.74 25.5627C166.602 25.8942 166.566 26.2589 166.636 26.6108C166.706 26.9628 166.879 27.286 167.133 27.5397C167.387 27.7934 167.71 27.9662 168.062 28.0362C168.414 28.1062 168.778 28.0703 169.11 27.933C169.441 27.7957 169.725 27.5632 169.924 27.2648C170.123 26.9665 170.23 26.6157 170.23 26.2569C170.23 25.7758 170.039 25.3143 169.699 24.9741C169.358 24.6339 168.897 24.4427 168.416 24.4427ZM168.416 9.92936C168.057 9.92936 167.706 10.0358 167.408 10.2351C167.109 10.4344 166.877 10.7178 166.74 11.0493C166.602 11.3808 166.566 11.7455 166.636 12.0975C166.706 12.4494 166.879 12.7726 167.133 13.0263C167.387 13.2801 167.71 13.4528 168.062 13.5228C168.414 13.5928 168.778 13.5569 169.11 13.4196C169.441 13.2823 169.725 13.0498 169.924 12.7514C170.123 12.4531 170.23 12.1023 170.23 11.7435C170.23 11.2624 170.039 10.8009 169.699 10.4607C169.358 10.1205 168.897 9.92936 168.416 9.92936ZM179.301 9.92936C178.942 9.92936 178.591 10.0358 178.293 10.2351C177.995 10.4344 177.762 10.7178 177.625 11.0493C177.487 11.3808 177.451 11.7455 177.521 12.0975C177.591 12.4494 177.764 12.7726 178.018 13.0263C178.272 13.2801 178.595 13.4528 178.947 13.5228C179.299 13.5928 179.664 13.5569 179.995 13.4196C180.326 13.2823 180.61 13.0498 180.809 12.7514C181.009 12.4531 181.115 12.1023 181.115 11.7435C181.115 11.2624 180.924 10.8009 180.584 10.4607C180.243 10.1205 179.782 9.92936 179.301 9.92936ZM182.929 0.85849H164.787C162.382 0.85849 160.074 1.81417 158.373 3.51529C156.672 5.2164 155.716 7.52361 155.716 9.92936V28.0711C155.716 30.4768 156.672 32.784 158.373 34.4852C160.074 36.1863 162.382 37.142 164.787 37.142H182.929C185.335 37.142 187.642 36.1863 189.343 34.4852C191.044 32.784 192 30.4768 192 28.0711V9.92936C192 7.52361 191.044 5.2164 189.343 3.51529C187.642 1.81417 185.335 0.85849 182.929 0.85849ZM188.372 28.0711C188.372 29.5145 187.798 30.8989 186.778 31.9195C185.757 32.9402 184.373 33.5136 182.929 33.5136H164.787C163.344 33.5136 161.96 32.9402 160.939 31.9195C159.918 30.8989 159.345 29.5145 159.345 28.0711V9.92936C159.345 8.48591 159.918 7.10158 160.939 6.08091C161.96 5.06024 163.344 4.48684 164.787 4.48684H182.929C184.373 4.48684 185.757 5.06024 186.778 6.08091C187.798 7.10158 188.372 8.48591 188.372 9.92936V28.0711ZM179.301 17.186C178.942 17.186 178.591 17.2924 178.293 17.4918C177.995 17.6911 177.762 17.9745 177.625 18.306C177.487 18.6375 177.451 19.0022 177.521 19.3542C177.591 19.7061 177.764 20.0293 178.018 20.283C178.272 20.5368 178.595 20.7095 178.947 20.7795C179.299 20.8495 179.664 20.8136 179.995 20.6763C180.326 20.539 180.61 20.3065 180.809 20.0081C181.009 19.7098 181.115 19.359 181.115 19.0002C181.115 18.5191 180.924 18.0576 180.584 17.7174C180.243 17.3772 179.782 17.186 179.301 17.186ZM179.301 24.4427C178.942 24.4427 178.591 24.5491 178.293 24.7485C177.995 24.9478 177.762 25.2312 177.625 25.5627C177.487 25.8942 177.451 26.2589 177.521 26.6108C177.591 26.9628 177.764 27.286 178.018 27.5397C178.272 27.7934 178.595 27.9662 178.947 28.0362C179.299 28.1062 179.664 28.0703 179.995 27.933C180.326 27.7957 180.61 27.5632 180.809 27.2648C181.009 26.9665 181.115 26.6157 181.115 26.2569C181.115 25.7758 180.924 25.3143 180.584 24.9741C180.243 24.6339 179.782 24.4427 179.301 24.4427Z" fill="white"/>
</svg>
