<svg width="36" height="36" viewBox="0 0 36 36" fill="none" xmlns="http://www.w3.org/2000/svg">
<path d="M13.0213 16.2844C12.6793 16.2844 12.345 16.385 12.0606 16.5735C11.7763 16.762 11.5547 17.03 11.4238 17.3435C11.2929 17.6569 11.2587 18.0019 11.3254 18.3347C11.3921 18.6675 11.5568 18.9732 11.7986 19.2131C12.0404 19.4531 12.3485 19.6165 12.684 19.6827C13.0194 19.7489 13.3671 19.7149 13.683 19.585C13.999 19.4552 14.269 19.2353 14.459 18.9532C14.649 18.671 14.7504 18.3393 14.7504 18C14.7504 17.545 14.5683 17.1086 14.244 16.7869C13.9197 16.4651 13.4799 16.2844 13.0213 16.2844ZM13.0213 23.1469C12.6793 23.1469 12.345 23.2475 12.0606 23.436C11.7763 23.6245 11.5547 23.8925 11.4238 24.206C11.2929 24.5194 11.2587 24.8644 11.3254 25.1972C11.3921 25.53 11.5568 25.8357 11.7986 26.0756C12.0404 26.3156 12.3485 26.479 12.684 26.5452C13.0194 26.6114 13.3671 26.5774 13.683 26.4475C13.999 26.3177 14.269 26.0978 14.459 25.8157C14.649 25.5335 14.7504 25.2018 14.7504 24.8625C14.7504 24.4075 14.5683 23.9711 14.244 23.6494C13.9197 23.3276 13.4799 23.1469 13.0213 23.1469ZM13.0213 9.42187C12.6793 9.42187 12.345 9.52249 12.0606 9.71101C11.7763 9.89952 11.5547 10.1675 11.4238 10.481C11.2929 10.7944 11.2587 11.1394 11.3254 11.4722C11.3921 11.805 11.5568 12.1107 11.7986 12.3506C12.0404 12.5906 12.3485 12.754 12.684 12.8202C13.0194 12.8864 13.3671 12.8524 13.683 12.7225C13.999 12.5927 14.269 12.3728 14.459 12.0906C14.649 11.8085 14.7504 11.4768 14.7504 11.1375C14.7504 10.6825 14.5683 10.2461 14.244 9.92437C13.9197 9.60262 13.4799 9.42187 13.0213 9.42187ZM23.3961 9.42187C23.0541 9.42187 22.7198 9.52249 22.4355 9.71101C22.1511 9.89952 21.9295 10.1675 21.7986 10.481C21.6677 10.7944 21.6335 11.1394 21.7002 11.4722C21.7669 11.805 21.9316 12.1107 22.1734 12.3506C22.4152 12.5906 22.7234 12.754 23.0588 12.8202C23.3942 12.8864 23.7419 12.8524 24.0578 12.7225C24.3738 12.5927 24.6438 12.3728 24.8338 12.0906C25.0238 11.8085 25.1252 11.4768 25.1252 11.1375C25.1252 10.6825 24.9431 10.2461 24.6188 9.92437C24.2945 9.60262 23.8547 9.42187 23.3961 9.42187ZM26.8544 0.843742H9.56303C7.27006 0.843742 5.071 1.74751 3.44962 3.35622C1.82824 4.96493 0.917358 7.14681 0.917358 9.42187V26.5781C0.917358 28.8532 1.82824 31.0351 3.44962 32.6438C5.071 34.2525 7.27006 35.1563 9.56303 35.1563H26.8544C29.1474 35.1563 31.3464 34.2525 32.9678 32.6438C34.5892 31.0351 35.5 28.8532 35.5 26.5781V9.42187C35.5 7.14681 34.5892 4.96493 32.9678 3.35622C31.3464 1.74751 29.1474 0.843742 26.8544 0.843742ZM32.0418 26.5781C32.0418 27.9432 31.4953 29.2523 30.5224 30.2175C29.5496 31.1827 28.2302 31.725 26.8544 31.725H9.56303C8.18725 31.725 6.86781 31.1827 5.89498 30.2175C4.92216 29.2523 4.37563 27.9432 4.37563 26.5781V9.42187C4.37563 8.05683 4.92216 6.74771 5.89498 5.78248C6.86781 4.81725 8.18725 4.27499 9.56303 4.27499H26.8544C28.2302 4.27499 29.5496 4.81725 30.5224 5.78248C31.4953 6.74771 32.0418 8.05683 32.0418 9.42187V26.5781ZM23.3961 16.2844C23.0541 16.2844 22.7198 16.385 22.4355 16.5735C22.1511 16.762 21.9295 17.03 21.7986 17.3435C21.6677 17.6569 21.6335 18.0019 21.7002 18.3347C21.7669 18.6675 21.9316 18.9732 22.1734 19.2131C22.4152 19.4531 22.7234 19.6165 23.0588 19.6827C23.3942 19.7489 23.7419 19.7149 24.0578 19.585C24.3738 19.4552 24.6438 19.2353 24.8338 18.9532C25.0238 18.671 25.1252 18.3393 25.1252 18C25.1252 17.545 24.9431 17.1086 24.6188 16.7869C24.2945 16.4651 23.8547 16.2844 23.3961 16.2844ZM23.3961 23.1469C23.0541 23.1469 22.7198 23.2475 22.4355 23.436C22.1511 23.6245 21.9295 23.8925 21.7986 24.206C21.6677 24.5194 21.6335 24.8644 21.7002 25.1972C21.7669 25.53 21.9316 25.8357 22.1734 26.0756C22.4152 26.3156 22.7234 26.479 23.0588 26.5452C23.3942 26.6114 23.7419 26.5774 24.0578 26.4475C24.3738 26.3177 24.6438 26.0978 24.8338 25.8157C25.0238 25.5335 25.1252 25.2018 25.1252 24.8625C25.1252 24.4075 24.9431 23.9711 24.6188 23.6494C24.2945 23.3276 23.8547 23.1469 23.3961 23.1469Z" fill="white"/>
</svg>
